<?xml version="1.0" encoding="UTF-8"?>
<svg version="1.1" xmlns="http://www.w3.org/2000/svg" width="577" height="433">
<path d="M0 0 C1.55557617 -0.03673828 1.55557617 -0.03673828 3.14257812 -0.07421875 C10.76582572 -0.10359543 10.76582572 -0.10359543 14.72265625 2.2734375 C18.06593474 6.09229913 17.6933529 9.36883956 17.66015625 14.2265625 C17.6587413 15.00059418 17.65732635 15.77462585 17.65586853 16.57211304 C17.65026403 19.04811442 17.63771083 21.52402588 17.625 24 C17.61998558 25.67708203 17.61542257 27.35416547 17.61132812 29.03125 C17.60029315 33.14586806 17.58302554 37.26041878 17.5625 41.375 C22.1825 41.045 26.8025 40.715 31.5625 40.375 C31.5310791 38.86933472 31.5310791 38.86933472 31.49902344 37.33325195 C31.42643306 33.59674434 31.38063189 29.86029863 31.34277344 26.12329102 C31.32270108 24.50827542 31.2954367 22.89333211 31.26074219 21.27856445 C31.21202785 18.95245499 31.18948846 16.62730907 31.171875 14.30078125 C31.15122986 13.58287918 31.13058472 12.86497711 31.10931396 12.12532043 C31.10769622 8.48246257 31.46202289 6.53014543 33.46191406 3.44213867 C37.87592614 -0.90158986 42.99391683 0.15367073 48.875 0.125 C49.92107422 0.104375 50.96714844 0.08375 52.04492188 0.0625 C53.05748047 0.05734375 54.07003906 0.0521875 55.11328125 0.046875 C56.50027222 0.03285645 56.50027222 0.03285645 57.9152832 0.01855469 C61.18338888 0.45860212 62.97001569 1.34135301 65.5625 3.375 C67.79718862 7.27743631 67.86329889 10.98962336 67.9765625 15.42578125 C67.99592865 16.08458786 68.0152948 16.74339447 68.0352478 17.42216492 C68.09465941 19.51048143 68.14127291 21.59885424 68.1875 23.6875 C68.22571532 25.11004905 68.26476909 26.53257584 68.3046875 27.95507812 C68.40032796 31.42818074 68.48449973 34.90145132 68.5625 38.375 C69.7239856 38.6059436 69.7239856 38.6059436 70.90893555 38.84155273 C73.40538817 39.34341574 75.89018428 39.88119797 78.375 40.4375 C79.16519531 40.61410156 79.95539063 40.79070312 80.76953125 40.97265625 C81.36121094 41.10542969 81.95289063 41.23820312 82.5625 41.375 C83.0575 43.85 83.0575 43.85 83.5625 46.375 C78.76188787 50.01684368 73.36314983 50.51150572 67.5625 51.375 C67.624375 52.6125 67.68625 53.85 67.75 55.125 C67.71164938 67.32049742 63.07830816 78.66565074 54.5625 87.375 C43.40992452 96.26220858 30.57385249 98.6182704 16.5625 97.375 C3.85951902 95.09731386 -4.89268607 89.8187119 -12.4375 79.375 C-16.13780089 73.10408509 -17.42266679 66.51889165 -18.4375 59.375 C-19.49710938 59.24222656 -20.55671875 59.10945313 -21.6484375 58.97265625 C-23.03648279 58.79446125 -24.42450231 58.6160654 -25.8125 58.4375 C-26.51117188 58.35048828 -27.20984375 58.26347656 -27.9296875 58.17382812 C-33.2109375 57.48828125 -33.2109375 57.48828125 -35.4375 56.375 C-35.4375 54.725 -35.4375 53.075 -35.4375 51.375 C-33.92103179 50.71898256 -32.39903825 50.0757336 -30.875 49.4375 C-29.60462891 48.89802734 -29.60462891 48.89802734 -28.30859375 48.34765625 C-25.03262576 47.23783852 -21.86013428 46.82771076 -18.4375 46.375 C-18.45321045 45.25528809 -18.4689209 44.13557617 -18.48510742 42.98193359 C-18.53957894 38.81110889 -18.57391252 34.64031538 -18.60229492 30.46923828 C-18.6173424 28.66710108 -18.6377853 26.86500027 -18.66381836 25.06298828 C-18.70038021 22.46637979 -18.71726681 19.87025725 -18.73046875 17.2734375 C-18.75369453 16.07308365 -18.75369453 16.07308365 -18.77738953 14.84848022 C-18.77884221 9.97396982 -18.2472178 6.54303196 -15.4375 2.375 C-11.00291654 -0.85385649 -5.24730534 0.00649821 0 0 Z M-8.4375 9.375 C-9.36437325 12.15561975 -9.55943396 13.79551859 -9.55102539 16.6628418 C-9.55094986 17.52350754 -9.55087433 18.38417328 -9.55079651 19.2709198 C-9.54563522 20.19600845 -9.54047394 21.12109711 -9.53515625 22.07421875 C-9.5337413 23.02440384 -9.53232635 23.97458893 -9.53086853 24.9535675 C-9.52526875 27.98991029 -9.51271632 31.02617948 -9.5 34.0625 C-9.49498497 36.12044164 -9.49042207 38.17838444 -9.48632812 40.23632812 C-9.4752994 45.28258046 -9.45803493 50.32877775 -9.4375 55.375 C-8.80521484 54.64216797 -8.80521484 54.64216797 -8.16015625 53.89453125 C-6.4375 52.375 -6.4375 52.375 -2.875 52.0625 C0.5625 52.375 0.5625 52.375 2.5625 54.375 C4.5425 54.375 6.5225 54.375 8.5625 54.375 C8.5625 39.525 8.5625 24.675 8.5625 9.375 C2.9525 9.375 -2.6575 9.375 -8.4375 9.375 Z M40.5625 9.375 C40.5625 23.235 40.5625 37.095 40.5625 51.375 C52.4397413 51.11321978 52.4397413 51.11321978 58.5625 48.375 C58.58724682 43.46370815 58.60538223 38.55245273 58.61743164 33.64111328 C58.62245569 31.97085945 58.62927605 30.30061001 58.63793945 28.63037109 C58.65008946 26.22752804 58.65574763 23.82474321 58.66015625 21.421875 C58.66789818 20.3044693 58.66789818 20.3044693 58.67579651 19.16448975 C58.6761754 15.65087781 58.42226234 12.81404937 57.5625 9.375 C51.9525 9.375 46.3425 9.375 40.5625 9.375 Z M67.5625 43.375 C67.5625 44.695 67.5625 46.015 67.5625 47.375 C70.8625 46.715 74.1625 46.055 77.5625 45.375 C77.5625 45.045 77.5625 44.715 77.5625 44.375 C74.2625 44.045 70.9625 43.715 67.5625 43.375 Z M17.5625 45.375 C17.5625 48.015 17.5625 50.655 17.5625 53.375 C19.70826637 53.40185938 21.85412645 53.42133088 24 53.4375 C25.79244141 53.45490234 25.79244141 53.45490234 27.62109375 53.47265625 C30.45123341 53.71401792 30.45123341 53.71401792 31.5625 52.375 C31.63398199 51.02256083 31.64649454 49.66665633 31.625 48.3125 C31.604375 47.013125 31.58375 45.71375 31.5625 44.375 C26.7291528 44.29166643 22.32557437 44.42238513 17.5625 45.375 Z M-25.625 51.875 C-26.69814453 52.29265625 -26.69814453 52.29265625 -27.79296875 52.71875 C-28.33566406 52.9353125 -28.87835938 53.151875 -29.4375 53.375 C-29.4375 53.705 -29.4375 54.035 -29.4375 54.375 C-25.8075 54.705 -22.1775 55.035 -18.4375 55.375 C-18.4375 53.725 -18.4375 52.075 -18.4375 50.375 C-21.39024099 50.375 -22.92808403 50.81391831 -25.625 51.875 Z M46.8125 54.375 C45.64203125 54.560625 44.4715625 54.74625 43.265625 54.9375 C42.37359375 55.081875 41.4815625 55.22625 40.5625 55.375 C40.32466797 56.26251953 40.32466797 56.26251953 40.08203125 57.16796875 C38.52167607 62.45248657 36.99891439 65.82586849 32.5625 69.375 C26.75259858 71.31163381 20.68876522 71.28625652 15.0625 68.875 C11.76645528 65.57895528 10.89537747 62.81792488 9.5625 58.375 C7.2525 58.375 4.9425 58.375 2.5625 58.375 C2.2325 59.695 1.9025 61.015 1.5625 62.375 C-5.0625 62.5 -5.0625 62.5 -8.4375 61.375 C-7.15705963 69.44177434 -4.67715264 75.88176508 1.78125 81.203125 C10.64285143 87.28809131 19.35197047 89.05086676 30.125 88.1640625 C38.80626621 86.52082282 46.56695572 82.5645688 52.08984375 75.60546875 C56.81633326 68.44678039 58.21325399 61.87095491 57.5625 53.375 C53.82328448 53.375 50.49630456 53.78559127 46.8125 54.375 Z M22.3125 56.875 C21.075 57.04 19.8375 57.205 18.5625 57.375 C19.78257944 60.0655528 19.78257944 60.0655528 21.5625 62.375 C26.58749694 62.09030797 26.58749694 62.09030797 30.5625 59.375 C30.5625 58.385 30.5625 57.395 30.5625 56.375 C27.67814062 56.375 25.14070832 56.49790556 22.3125 56.875 Z " fill="#76EFF2" transform="translate(264.4375,167.625)"/>
<path d="M0 0 C1.55557617 -0.03673828 1.55557617 -0.03673828 3.14257812 -0.07421875 C10.76582572 -0.10359543 10.76582572 -0.10359543 14.72265625 2.2734375 C18.193707 6.23824706 17.69183385 9.84462088 17.66015625 14.8828125 C17.6587413 15.72343231 17.65732635 16.56405212 17.65586853 17.43014526 C17.65026237 20.12013275 17.63770886 22.81003759 17.625 25.5 C17.61998579 27.32161338 17.61542275 29.14322807 17.61132812 30.96484375 C17.60029094 35.43492777 17.5830222 39.90494986 17.5625 44.375 C18.5525 44.705 19.5425 45.035 20.5625 45.375 C19.5725 45.375 18.5825 45.375 17.5625 45.375 C18.0575 52.8 18.0575 52.8 18.5625 60.375 C17.9025 60.375 17.2425 60.375 16.5625 60.375 C18.19205586 63.55265745 18.19205586 63.55265745 20.8046875 63.921875 C21.67351562 63.98890625 22.54234375 64.0559375 23.4375 64.125 C24.30117188 64.20234375 25.16484375 64.2796875 26.0546875 64.359375 C28.46852965 64.37441451 30.30053127 64.20675532 32.5625 63.375 C33.0575 62.385 33.0575 62.385 33.5625 61.375 C33.2325 63.025 32.9025 64.675 32.5625 66.375 C27.75930338 67.94339073 23.66886573 69.02490109 18.5625 68.375 C15.29127573 66.43649673 13.03225225 65.04694714 11.96875 61.26171875 C11.6875 59.0625 11.6875 59.0625 11.5625 55.375 C10.5725 55.375 9.5825 55.375 8.5625 55.375 C8.5625 40.195 8.5625 25.015 8.5625 9.375 C2.9525 9.375 -2.6575 9.375 -8.4375 9.375 C-8.4375 24.225 -8.4375 39.075 -8.4375 54.375 C-8.1075 53.715 -7.7775 53.055 -7.4375 52.375 C-6.7775 52.375 -6.1175 52.375 -5.4375 52.375 C-5.4375 53.035 -5.4375 53.695 -5.4375 54.375 C-3.4575 54.705 -1.4775 55.035 0.5625 55.375 C-0.0975 56.695 -0.7575 58.015 -1.4375 59.375 C-2.7575 59.375 -4.0775 59.375 -5.4375 59.375 C-5.7675 60.035 -6.0975 60.695 -6.4375 61.375 C-5.7775 61.705 -5.1175 62.035 -4.4375 62.375 C-5.4275 62.375 -6.4175 62.375 -7.4375 62.375 C-8.0975 63.035 -8.7575 63.695 -9.4375 64.375 C-9.4375 63.385 -9.4375 62.395 -9.4375 61.375 C-10.0975 61.375 -10.7575 61.375 -11.4375 61.375 C-10.81353297 63.10453968 -10.18827872 64.833615 -9.5625 66.5625 C-9.21445313 67.52542969 -8.86640625 68.48835938 -8.5078125 69.48046875 C-6.25884622 75.5625272 -4.89979419 78.73347054 0.5625 82.375 C0.5625 83.035 0.5625 83.695 0.5625 84.375 C1.51125 84.684375 2.46 84.99375 3.4375 85.3125 C6.5625 86.375 6.5625 86.375 8.5625 87.375 C8.5625 88.035 8.5625 88.695 8.5625 89.375 C17.58064321 90.52016104 26.4905648 90.46971858 35.5625 90.375 C29.79866782 94.94631518 24.68292996 94.76404509 17.5625 94.375 C13.86198791 93.85026647 10.21475622 93.16620444 6.5625 92.375 C7.5525 93.035 8.5425 93.695 9.5625 94.375 C1.24099465 94.02827061 -3.66016079 89.46777693 -9.1875 83.5625 C-15.21588211 76.31196298 -17.13097371 68.5722574 -18.4375 59.375 C-19.49710938 59.24222656 -20.55671875 59.10945313 -21.6484375 58.97265625 C-23.03648279 58.79446125 -24.42450231 58.6160654 -25.8125 58.4375 C-26.51117188 58.35048828 -27.20984375 58.26347656 -27.9296875 58.17382812 C-33.2109375 57.48828125 -33.2109375 57.48828125 -35.4375 56.375 C-35.4375 54.725 -35.4375 53.075 -35.4375 51.375 C-33.92103179 50.71898256 -32.39903825 50.0757336 -30.875 49.4375 C-29.60462891 48.89802734 -29.60462891 48.89802734 -28.30859375 48.34765625 C-25.03262576 47.23783852 -21.86013428 46.82771076 -18.4375 46.375 C-18.45321045 45.25528809 -18.4689209 44.13557617 -18.48510742 42.98193359 C-18.53957894 38.81110889 -18.57391252 34.64031538 -18.60229492 30.46923828 C-18.6173424 28.66710108 -18.6377853 26.86500027 -18.66381836 25.06298828 C-18.70038021 22.46637979 -18.71726681 19.87025725 -18.73046875 17.2734375 C-18.75369453 16.07308365 -18.75369453 16.07308365 -18.77738953 14.84848022 C-18.77884221 9.97396982 -18.2472178 6.54303196 -15.4375 2.375 C-11.00291654 -0.85385649 -5.24730534 0.00649821 0 0 Z M-25.625 51.875 C-26.69814453 52.29265625 -26.69814453 52.29265625 -27.79296875 52.71875 C-28.33566406 52.9353125 -28.87835938 53.151875 -29.4375 53.375 C-29.4375 53.705 -29.4375 54.035 -29.4375 54.375 C-25.8075 54.705 -22.1775 55.035 -18.4375 55.375 C-18.4375 53.725 -18.4375 52.075 -18.4375 50.375 C-21.39024099 50.375 -22.92808403 50.81391831 -25.625 51.875 Z " fill="#66D5D7" transform="translate(264.4375,167.625)"/>
<path d="M0 0 C0.94101562 0.00322266 1.88203125 0.00644531 2.8515625 0.00976562 C3.83640625 0.01814453 4.82125 0.02652344 5.8359375 0.03515625 C6.82851563 0.03966797 7.82109375 0.04417969 8.84375 0.04882812 C11.2995391 0.0606348 13.75520854 0.07710225 16.2109375 0.09765625 C16.2109375 0.42765625 16.2109375 0.75765625 16.2109375 1.09765625 C14.89738281 1.13503906 13.58382812 1.17242187 12.23046875 1.2109375 C10.49476386 1.27661282 8.75908803 1.34305962 7.0234375 1.41015625 C6.15912109 1.43271484 5.29480469 1.45527344 4.40429688 1.47851562 C-0.37610932 1.67998868 -3.96552802 1.89158697 -7.7890625 5.09765625 C-7.7890625 5.75765625 -7.7890625 6.41765625 -7.7890625 7.09765625 C-7.36109375 6.4428125 -6.933125 5.78796875 -6.4921875 5.11328125 C-2.19171218 1.90656844 2.25450485 2.6758704 7.4609375 2.84765625 C8.4921875 2.86570313 9.5234375 2.88375 10.5859375 2.90234375 C13.12854814 2.94942913 15.66926912 3.01517575 18.2109375 3.09765625 C18.2109375 3.75765625 18.2109375 4.41765625 18.2109375 5.09765625 C19.2009375 5.42765625 20.1909375 5.75765625 21.2109375 6.09765625 C21.5409375 19.95765625 21.8709375 33.81765625 22.2109375 48.09765625 C21.2209375 48.09765625 20.2309375 48.09765625 19.2109375 48.09765625 C19.21879272 46.56057007 19.21879272 46.56057007 19.22680664 44.99243164 C19.24485719 41.20370349 19.2563697 37.41497916 19.26586914 33.6262207 C19.27090924 31.98396161 19.27774128 30.34170702 19.28637695 28.69946289 C19.29845676 26.34390146 19.30416889 23.98839916 19.30859375 21.6328125 C19.31375504 20.89426529 19.31891632 20.15571808 19.32423401 19.39479065 C19.32443 17.62867537 19.27288469 15.86268479 19.2109375 14.09765625 C18.7159375 13.60265625 18.7159375 13.60265625 18.2109375 13.09765625 C18.17029918 11.4314851 18.1682165 9.7637753 18.2109375 8.09765625 C14.33625312 7.13970845 11.05247053 7.10483239 7.0859375 7.47265625 C5.53519531 7.60800781 5.53519531 7.60800781 3.953125 7.74609375 C1.12529662 8.01896884 1.12529662 8.01896884 -1.7890625 9.09765625 C-1.7890625 23.61765625 -1.7890625 38.13765625 -1.7890625 53.09765625 C13.39950036 52.28641187 13.39950036 52.28641187 19.2109375 49.09765625 C20.6959375 49.59265625 20.6959375 49.59265625 22.2109375 50.09765625 C22.04335938 50.649375 21.87578125 51.20109375 21.703125 51.76953125 C21.14797828 54.39546334 21.22112442 56.6686845 21.3359375 59.34765625 C21.37262008 68.57943928 17.61960959 76.37199607 11.2109375 83.09765625 C9.8909375 83.09765625 8.5709375 83.09765625 7.2109375 83.09765625 C8.2109375 80.09765625 8.2109375 80.09765625 10.109375 78.25390625 C16.63340404 71.56010694 18.14997413 61.02875087 19.2109375 52.09765625 C18.5509375 52.09765625 17.8909375 52.09765625 17.2109375 52.09765625 C17.2109375 53.74765625 17.2109375 55.39765625 17.2109375 57.09765625 C16.5509375 56.76765625 15.8909375 56.43765625 15.2109375 56.09765625 C15.2109375 55.10765625 15.2109375 54.11765625 15.2109375 53.09765625 C14.48648438 53.24203125 13.76203125 53.38640625 13.015625 53.53515625 C8.02602127 54.49316017 3.31826012 55.37372774 -1.7890625 55.09765625 C-1.88703125 55.68933594 -1.985 56.28101563 -2.0859375 56.890625 C-3.03612478 61.91187329 -3.94425021 65.47254752 -7.7890625 69.09765625 C-13.05626373 71.63272079 -18.04334943 71.78106706 -23.7890625 71.09765625 C-28.2543696 68.94474033 -30.74978984 66.62937326 -32.7890625 62.09765625 C-32.7890625 60.77765625 -32.7890625 59.45765625 -32.7890625 58.09765625 C-35.0990625 58.09765625 -37.4090625 58.09765625 -39.7890625 58.09765625 C-40.1190625 59.41765625 -40.4490625 60.73765625 -40.7890625 62.09765625 C-44.2540625 62.59265625 -44.2540625 62.59265625 -47.7890625 63.09765625 C-48.1190625 61.44765625 -48.4490625 59.79765625 -48.7890625 58.09765625 C-47.1390625 58.09765625 -45.4890625 58.09765625 -43.7890625 58.09765625 C-43.7890625 57.10765625 -43.7890625 56.11765625 -43.7890625 55.09765625 C-44.748125 54.94296875 -44.748125 54.94296875 -45.7265625 54.78515625 C-46.4071875 54.55828125 -47.0878125 54.33140625 -47.7890625 54.09765625 C-48.2840625 52.61265625 -48.2840625 52.61265625 -48.7890625 51.09765625 C-45.4140625 50.97265625 -45.4140625 50.97265625 -41.7890625 51.09765625 C-41.1290625 51.75765625 -40.4690625 52.41765625 -39.7890625 53.09765625 C-38.31536491 53.32416385 -36.83465106 53.5067333 -35.3515625 53.66015625 C-32.90625 54.13671875 -32.90625 54.13671875 -30.7890625 55.09765625 C-29.53695542 57.36545859 -29.00867277 59.36856705 -28.51953125 61.90625 C-27.53440448 64.86163031 -26.55927027 65.68720105 -23.7890625 67.09765625 C-20.5013424 67.24435483 -20.5013424 67.24435483 -17.0390625 66.78515625 C-15.86859375 66.66527344 -14.698125 66.54539062 -13.4921875 66.421875 C-12.60015625 66.31488281 -11.708125 66.20789063 -10.7890625 66.09765625 C-10.2940625 64.61265625 -10.2940625 64.61265625 -9.7890625 63.09765625 C-10.30984375 63.43539062 -10.830625 63.773125 -11.3671875 64.12109375 C-14.61997697 65.43270241 -17.06747522 65.06981498 -20.5390625 64.72265625 C-21.70953125 64.61179687 -22.88 64.5009375 -24.0859375 64.38671875 C-24.97796875 64.29132813 -25.87 64.1959375 -26.7890625 64.09765625 C-26.4765625 62.16015625 -26.4765625 62.16015625 -25.7890625 60.09765625 C-24.3040625 59.60265625 -24.3040625 59.60265625 -22.7890625 59.09765625 C-22.1290625 59.75765625 -21.4690625 60.41765625 -20.7890625 61.09765625 C-17.25443663 61.09276474 -17.25443663 61.09276474 -13.7890625 60.09765625 C-12.27611962 58.16168593 -12.27611962 58.16168593 -11.7890625 56.09765625 C-12.5315625 56.34515625 -12.5315625 56.34515625 -13.2890625 56.59765625 C-16.88715783 57.31727532 -20.11445483 57.27545985 -23.7890625 57.09765625 C-24.4490625 56.43765625 -25.1090625 55.77765625 -25.7890625 55.09765625 C-25.4590625 54.43765625 -25.1290625 53.77765625 -24.7890625 53.09765625 C-21.84765625 52.68359375 -21.84765625 52.68359375 -18.2265625 52.47265625 C-17.02902344 52.39789063 -15.83148438 52.323125 -14.59765625 52.24609375 C-13.67082031 52.19710937 -12.74398437 52.148125 -11.7890625 52.09765625 C-11.4590625 49.45765625 -11.1290625 46.81765625 -10.7890625 44.09765625 C-11.54832031 44.18144531 -12.30757813 44.26523438 -13.08984375 44.3515625 C-14.58064453 44.50431641 -14.58064453 44.50431641 -16.1015625 44.66015625 C-17.58076172 44.81677734 -17.58076172 44.81677734 -19.08984375 44.9765625 C-21.7890625 45.09765625 -21.7890625 45.09765625 -24.7890625 44.09765625 C-24.7890625 43.10765625 -24.7890625 42.11765625 -24.7890625 41.09765625 C-20.1690625 40.76765625 -15.5490625 40.43765625 -10.7890625 40.09765625 C-10.81000977 39.09387939 -10.83095703 38.09010254 -10.85253906 37.0559082 C-10.92512944 33.31940059 -10.97093061 29.58295488 -11.00878906 25.84594727 C-11.02886142 24.23093167 -11.0561258 22.61598836 -11.09082031 21.0012207 C-11.13953465 18.67511124 -11.16207404 16.34996532 -11.1796875 14.0234375 C-11.20033264 13.30553543 -11.22097778 12.58763336 -11.24224854 11.84797668 C-11.24386628 8.20511882 -10.88953961 6.25280168 -8.88964844 3.16479492 C-5.81936295 0.14339705 -4.19040391 -0.0252434 0 0 Z " fill="#6AE1E2" transform="translate(306.7890625,167.90234375)"/>
<path d="M0 0 C6.93 0 13.86 0 21 0 C21.33 0.66 21.66 1.32 22 2 C24.01669827 3.13350534 24.01669827 3.13350534 26 4 C25.67 6.64 25.34 9.28 25 12 C22.64046906 9.64046906 22.50858587 8.22104383 22 5 C18.15785626 3.71928542 14.50434108 3.77674017 10.5 3.75 C9.34177734 3.7190625 9.34177734 3.7190625 8.16015625 3.6875 C3.97473674 3.56079744 3.97473674 3.56079744 0.27140808 5.22956848 C-1.38165504 7.53145337 -1.33186149 8.83778772 -1.2487793 11.6550293 C-1.22853195 12.59577805 -1.20828461 13.53652679 -1.18742371 14.50578308 C-1.13138725 16.02465874 -1.13138725 16.02465874 -1.07421875 17.57421875 C-1.04777786 18.61318802 -1.02133698 19.65215729 -0.99409485 20.72261047 C-0.90624322 24.04481901 -0.79712305 27.36594543 -0.6875 30.6875 C-0.62425057 32.93811212 -0.56238421 35.18876357 -0.50195312 37.43945312 C-0.35068826 42.96019222 -0.18195176 48.48019172 0 54 C1.21004832 53.01033274 1.21004832 53.01033274 1.12025452 51.09544373 C1.11803391 50.26271439 1.11581329 49.42998505 1.11352539 48.57202148 C1.11344986 47.63112167 1.11337433 46.69022186 1.11329651 45.72080994 C1.10813522 44.69790359 1.10297394 43.67499725 1.09765625 42.62109375 C1.0962413 41.57929459 1.09482635 40.53749542 1.09336853 39.46412659 C1.0877508 36.12188906 1.0751953 32.77971743 1.0625 29.4375 C1.05748728 27.17773534 1.05292398 24.91796963 1.04882812 22.65820312 C1.03777561 17.10544609 1.02102024 11.55272775 1 6 C2.65 5.67 4.3 5.34 6 5 C5.01 5.33 4.02 5.66 3 6 C3 20.85 3 35.7 3 51 C3.33 50.34 3.66 49.68 4 49 C4.66 49 5.32 49 6 49 C6 49.66 6 50.32 6 51 C7.98 51.33 9.96 51.66 12 52 C11.34 53.32 10.68 54.64 10 56 C8.68 56 7.36 56 6 56 C5.67 56.66 5.34 57.32 5 58 C5.66 58.33 6.32 58.66 7 59 C6.01 59 5.02 59 4 59 C3.34 59.66 2.68 60.32 2 61 C2 60.01 2 59.02 2 58 C1.34 58 0.68 58 0 58 C0.62396703 59.72953968 1.24922128 61.458615 1.875 63.1875 C2.22304687 64.15042969 2.57109375 65.11335938 2.9296875 66.10546875 C5.17865378 72.1875272 6.53770581 75.35847054 12 79 C12 79.66 12 80.32 12 81 C13.423125 81.4640625 13.423125 81.4640625 14.875 81.9375 C18 83 18 83 20 84 C20 84.66 20 85.32 20 86 C29.01814321 87.14516104 37.9280648 87.09471858 47 87 C41.23979073 91.56844183 36.11684482 91.38970989 29 91 C24.54349354 90.35022052 20.27229724 89.42409908 16 88 C15.505 87.01 15.505 87.01 15 86 C13.01753602 84.96567096 11.01586684 83.96761608 9 83 C8.01 82.34 7.02 81.68 6 81 C6 80.34 6 79.68 6 79 C5.34 78.67 4.68 78.34 4 78 C2.13616104 75.10866008 0.58595184 72.050718 -1 69 C-1.433125 68.195625 -1.86625 67.39125 -2.3125 66.5625 C-3.25384303 63.05385781 -3.09566051 59.7246306 -2.97265625 56.109375 C-2.75444203 54.01293065 -2.75444203 54.01293065 -4 53 C-4.98699878 47.02136584 -5.06988594 41.29362333 -4.87890625 35.25 C-4.85529526 34.35128174 -4.83168427 33.45256348 -4.80735779 32.52661133 C-4.73139464 29.68421922 -4.64708485 26.84214727 -4.5625 24 C-4.5092117 22.06121306 -4.4564719 20.12241097 -4.40429688 18.18359375 C-4.27587186 13.45553028 -4.13996585 8.72773533 -4 4 C-3.01 3.67 -2.02 3.34 -1 3 C-0.67 2.01 -0.34 1.02 0 0 Z " fill="#5DC0C4" transform="translate(253,171)"/>
<path d="M0 0 C0 0.33 0 0.66 0 1 C5.445 1.495 5.445 1.495 11 2 C11 2.33 11 2.66 11 3 C10.44014404 3.01458252 9.88028809 3.02916504 9.3034668 3.04418945 C6.76411863 3.11871352 4.22607922 3.21535581 1.6875 3.3125 C0.80642578 3.33505859 -0.07464844 3.35761719 -0.98242188 3.38085938 C-2.25375977 3.4340332 -2.25375977 3.4340332 -3.55078125 3.48828125 C-4.33106689 3.51446533 -5.11135254 3.54064941 -5.9152832 3.56762695 C-8.56382833 4.11693875 -9.33647055 4.88547699 -11 7 C-11.47099015 9.27438288 -11.47099015 9.27438288 -11.43237305 11.83862305 C-11.46206429 13.30980843 -11.46206429 13.30980843 -11.49235535 14.81071472 C-11.49874527 15.86704605 -11.50513519 16.92337738 -11.51171875 18.01171875 C-11.52966995 19.09508011 -11.54762115 20.17844147 -11.56611633 21.29463196 C-11.62034985 24.75888157 -11.65415744 28.22299238 -11.6875 31.6875 C-11.72066149 34.03452458 -11.75515004 36.38153081 -11.79101562 38.72851562 C-11.87608374 44.48555262 -11.94437832 50.2426073 -12 56 C-11.34 56.33 -10.68 56.66 -10 57 C-10.02320313 57.66386719 -10.04640625 58.32773438 -10.0703125 59.01171875 C-10.08835938 59.89472656 -10.10640625 60.77773437 -10.125 61.6875 C-10.14820313 62.55761719 -10.17140625 63.42773438 -10.1953125 64.32421875 C-9.7603811 70.28277895 -6.33668847 74.8550928 -3.2421875 79.79296875 C-2 82 -2 82 -2 84 C-1.195625 84.4021875 -1.195625 84.4021875 -0.375 84.8125 C2.41666667 86.20833333 5.20833333 87.60416667 8 89 C8 89.99 8 90.98 8 92 C9.65 92.33 11.3 92.66 13 93 C9.57099149 94.13543328 8.97525768 93.99077405 5.3125 92.625 C-3.88876034 87.59520657 -9.79195861 79.88022831 -13 70 C-13.8612671 66.35094731 -14.51823766 62.71747952 -15 59 C-16.05960938 58.86722656 -17.11921875 58.73445313 -18.2109375 58.59765625 C-19.59898279 58.41946125 -20.98700231 58.2410654 -22.375 58.0625 C-23.07367188 57.97548828 -23.77234375 57.88847656 -24.4921875 57.79882812 C-29.7734375 57.11328125 -29.7734375 57.11328125 -32 56 C-32 54.35 -32 52.7 -32 51 C-30.48353179 50.34398256 -28.96153825 49.7007336 -27.4375 49.0625 C-26.16712891 48.52302734 -26.16712891 48.52302734 -24.87109375 47.97265625 C-21.59512576 46.86283852 -18.42263428 46.45271076 -15 46 C-15.01571045 44.88028809 -15.0314209 43.76057617 -15.04760742 42.60693359 C-15.10207894 38.43610889 -15.13641252 34.26531538 -15.16479492 30.09423828 C-15.1798424 28.29210108 -15.2002853 26.49000027 -15.22631836 24.68798828 C-15.26288021 22.09137979 -15.27976681 19.49525725 -15.29296875 16.8984375 C-15.31619453 15.69808365 -15.31619453 15.69808365 -15.33988953 14.47348022 C-15.34135207 9.56588723 -14.68059805 6.27262837 -12 2 C-8.50826638 -0.84511628 -4.28603935 -0.14286798 0 0 Z M-22.1875 51.5 C-23.26064453 51.91765625 -23.26064453 51.91765625 -24.35546875 52.34375 C-24.89816406 52.5603125 -25.44085938 52.776875 -26 53 C-26 53.33 -26 53.66 -26 54 C-22.37 54.33 -18.74 54.66 -15 55 C-15 53.35 -15 51.7 -15 50 C-17.95274099 50 -19.49058403 50.43891831 -22.1875 51.5 Z " fill="#63BFDA" transform="translate(261,168)"/>
<path d="M0 0 C0.66 0 1.32 0 2 0 C2 0.99 2 1.98 2 3 C2.66 3 3.32 3 4 3 C4.23074219 3.65226563 4.46148437 4.30453125 4.69921875 4.9765625 C8.33537375 14.72088303 12.15058238 19.35849934 21.61328125 23.8046875 C29.87050387 26.71900136 38.63498671 26.38682083 47.20703125 25.15625 C48.09455078 25.07890625 48.09455078 25.07890625 49 25 C49.33 25.33 49.66 25.66 50 26 C53.3 25.01 56.6 24.02 60 23 C60.66 23.99 61.32 24.98 62 26 C62.99 26 63.98 26 65 26 C54.04825738 35.58277479 42.14649481 36.74948317 28 36 C22.67871402 35.36080649 19.67876236 33.94324855 16 30 C16.81082031 30.144375 17.62164062 30.28875 18.45703125 30.4375 C31.93989675 32.88717681 31.93989675 32.88717681 45 30 C44.03320312 30.02320313 43.06640625 30.04640625 42.0703125 30.0703125 C34.4344481 30.17615616 27.44188767 29.96115628 20 28 C20 27.34 20 26.68 20 26 C19.113125 25.7525 18.22625 25.505 17.3125 25.25 C13.82994015 23.93582647 11.75882063 22.46841846 9 20 C7.9171875 19.0409375 7.9171875 19.0409375 6.8125 18.0625 C4.7506294 15.71623346 3.98785989 13.96357967 3 11 C2.74089844 10.2575 2.48179687 9.515 2.21484375 8.75 C0 2.32180233 0 2.32180233 0 0 Z " fill="#6FD9EB" transform="translate(253,229)"/>
<path d="M0 0 C1.13888672 -0.03673828 1.13888672 -0.03673828 2.30078125 -0.07421875 C5.57296373 -0.0914106 7.93605859 0.00450615 10.70776367 1.82543945 C13.37927817 5.6258244 13.12163108 9.08228398 13.14453125 13.62890625 C13.16343918 14.52616928 13.18234711 15.42343231 13.201828 16.34788513 C13.23828458 18.24145452 13.26543954 20.13522275 13.28393555 22.02905273 C13.31243453 24.93083418 13.36750104 27.83114188 13.42773438 30.73242188 C13.45987788 32.57289034 13.4905277 34.41338563 13.51953125 36.25390625 C13.5340181 37.12269913 13.54850494 37.991492 13.56343079 38.88661194 C13.5706163 39.69432541 13.57780182 40.50203888 13.58520508 41.33422852 C13.59312576 42.04386246 13.60104645 42.7534964 13.60920715 43.4846344 C13.5 45.375 13.5 45.375 12.5 48.375 C11.015 48.87 11.015 48.87 9.5 49.375 C9.5 34.195 9.5 19.015 9.5 3.375 C3.56 3.375 -2.38 3.375 -8.5 3.375 C-8.83 18.885 -9.16 34.395 -9.5 50.375 C-8.51 50.705 -7.52 51.035 -6.5 51.375 C-7.82 51.375 -9.14 51.375 -10.5 51.375 C-11.43977225 45.7330221 -11.70820724 40.21778558 -11.81640625 34.50390625 C-11.83718735 33.581577 -11.85796844 32.65924774 -11.87937927 31.70896912 C-11.94435638 28.78521617 -12.00351684 25.86137939 -12.0625 22.9375 C-12.10573461 20.94595514 -12.14935042 18.95441852 -12.19335938 16.96289062 C-12.29998407 12.10034463 -12.40139503 7.23771496 -12.5 2.375 C-8.38721445 0.07674609 -4.62307576 0.00784903 0 0 Z " fill="#6CCEE2" transform="translate(263.5,173.625)"/>
<path d="M0 0 C3.375 -0.125 3.375 -0.125 7 0 C7.66 0.66 8.32 1.32 9 2 C10.47369759 2.2265076 11.95441144 2.40907705 13.4375 2.5625 C15.8828125 3.0390625 15.8828125 3.0390625 18 4 C19.25210708 6.26780234 19.78038973 8.2709108 20.26953125 10.80859375 C21.25245893 13.75737679 22.24242814 14.58432348 25 16 C28.18497851 16.18379376 28.18497851 16.18379376 31.5625 15.75 C32.69816406 15.64171875 33.83382812 15.5334375 35.00390625 15.421875 C38.04350061 15.08597817 38.04350061 15.08597817 41 14 C41.78633476 11.79826266 42.06172391 9.62083883 42.4375 7.3125 C42.7159375 6.1678125 42.7159375 6.1678125 43 5 C43.66 4.67 44.32 4.34 45 4 C45.37180988 9.08140171 44.51532257 12.55626346 42 17 C37.59417962 20.41451079 33.01714097 20.51274063 27.625 20.3515625 C23.86812942 19.84841019 21.76346285 18.55620313 19 16 C16.42297891 12.56397188 16 11.39927132 16 7 C13.69 7 11.38 7 9 7 C8.67 8.32 8.34 9.64 8 11 C5.69 11.33 3.38 11.66 1 12 C0.67 10.35 0.34 8.7 0 7 C1.65 7 3.3 7 5 7 C5 6.01 5 5.02 5 4 C4.360625 3.896875 3.72125 3.79375 3.0625 3.6875 C2.381875 3.460625 1.70125 3.23375 1 3 C0.67 2.01 0.34 1.02 0 0 Z " fill="#70DBEB" transform="translate(258,219)"/>
<path d="M0 0 C0.94101562 0.00322266 1.88203125 0.00644531 2.8515625 0.00976562 C3.83640625 0.01814453 4.82125 0.02652344 5.8359375 0.03515625 C6.82851563 0.03966797 7.82109375 0.04417969 8.84375 0.04882812 C11.2995391 0.0606348 13.75520854 0.07710225 16.2109375 0.09765625 C16.2109375 0.42765625 16.2109375 0.75765625 16.2109375 1.09765625 C14.89738281 1.13503906 13.58382812 1.17242187 12.23046875 1.2109375 C10.49476386 1.27661282 8.75908803 1.34305962 7.0234375 1.41015625 C6.15912109 1.43271484 5.29480469 1.45527344 4.40429688 1.47851562 C-0.37610932 1.67998868 -3.96552802 1.89158697 -7.7890625 5.09765625 C-7.7890625 5.75765625 -7.7890625 6.41765625 -7.7890625 7.09765625 C-7.1290625 7.42765625 -6.4690625 7.75765625 -5.7890625 8.09765625 C-5.86125 9.06703125 -5.9334375 10.03640625 -6.0078125 11.03515625 C-6.69304849 20.74449825 -6.89498663 30.36440574 -6.7890625 40.09765625 C-6.7890625 41.08765625 -6.7890625 42.07765625 -6.7890625 43.09765625 C-7.4490625 42.76765625 -8.1090625 42.43765625 -8.7890625 42.09765625 C-8.4590625 43.08765625 -8.1290625 44.07765625 -7.7890625 45.09765625 C-8.2265625 47.78515625 -8.2265625 47.78515625 -8.7890625 50.09765625 C-8.1290625 50.09765625 -7.4690625 50.09765625 -6.7890625 50.09765625 C-6.8509375 49.31390625 -6.9128125 48.53015625 -6.9765625 47.72265625 C-6.88375 46.42328125 -6.88375 46.42328125 -6.7890625 45.09765625 C-5.7990625 44.43765625 -4.8090625 43.77765625 -3.7890625 43.09765625 C-3.7890625 46.06765625 -3.7890625 49.03765625 -3.7890625 52.09765625 C-5.7690625 52.09765625 -7.7490625 52.09765625 -9.7890625 52.09765625 C-10.1190625 49.45765625 -10.4490625 46.81765625 -10.7890625 44.09765625 C-11.54832031 44.18144531 -12.30757813 44.26523438 -13.08984375 44.3515625 C-14.58064453 44.50431641 -14.58064453 44.50431641 -16.1015625 44.66015625 C-17.58076172 44.81677734 -17.58076172 44.81677734 -19.08984375 44.9765625 C-21.7890625 45.09765625 -21.7890625 45.09765625 -24.7890625 44.09765625 C-24.7890625 43.10765625 -24.7890625 42.11765625 -24.7890625 41.09765625 C-20.1690625 40.76765625 -15.5490625 40.43765625 -10.7890625 40.09765625 C-10.81000977 39.09387939 -10.83095703 38.09010254 -10.85253906 37.0559082 C-10.92512944 33.31940059 -10.97093061 29.58295488 -11.00878906 25.84594727 C-11.02886142 24.23093167 -11.0561258 22.61598836 -11.09082031 21.0012207 C-11.13953465 18.67511124 -11.16207404 16.34996532 -11.1796875 14.0234375 C-11.20033264 13.30553543 -11.22097778 12.58763336 -11.24224854 11.84797668 C-11.24386628 8.20511882 -10.88953961 6.25280168 -8.88964844 3.16479492 C-5.81936295 0.14339705 -4.19040391 -0.0252434 0 0 Z " fill="#71E1EA" transform="translate(306.7890625,167.90234375)"/>
<path d="M0 0 C0 0.33 0 0.66 0 1 C5.445 1.495 5.445 1.495 11 2 C11 2.33 11 2.66 11 3 C10.44014404 3.01458252 9.88028809 3.02916504 9.3034668 3.04418945 C6.76411863 3.11871352 4.22607922 3.21535581 1.6875 3.3125 C0.80642578 3.33505859 -0.07464844 3.35761719 -0.98242188 3.38085938 C-2.25375977 3.4340332 -2.25375977 3.4340332 -3.55078125 3.48828125 C-4.33106689 3.51446533 -5.11135254 3.54064941 -5.9152832 3.56762695 C-8.54049122 4.1120986 -9.32565198 4.93360219 -11 7 C-11.46091455 8.8980581 -11.46091455 8.8980581 -11.41650391 10.99316406 C-11.44135361 12.19020966 -11.44135361 12.19020966 -11.46670532 13.41143799 C-11.46995819 14.2708197 -11.47321106 15.13020142 -11.4765625 16.015625 C-11.49214203 16.90481628 -11.50772156 17.79400757 -11.52377319 18.71014404 C-11.57132581 21.55675311 -11.59903622 24.40311915 -11.625 27.25 C-11.66162823 30.08242215 -11.70244961 32.91471109 -11.74765015 35.74700928 C-11.77461207 37.50885248 -11.79607549 39.2707912 -11.81118774 41.03277588 C-11.87134508 45.78479236 -12.21385608 50.3115228 -13 55 C-13.99 55 -14.98 55 -16 55 C-15.93288663 48.41597705 -15.84303542 41.83254261 -15.73754883 35.24902344 C-15.70434334 33.01048789 -15.67629784 30.77186951 -15.65356445 28.53320312 C-15.61993855 25.31083961 -15.56761728 22.08923226 -15.51171875 18.8671875 C-15.50532883 17.87008759 -15.4989389 16.87298767 -15.49235535 15.84567261 C-15.3798256 10.49880615 -15.01572401 6.61272418 -12 2 C-8.50826638 -0.84511628 -4.28603935 -0.14286798 0 0 Z " fill="#5DB4D5" transform="translate(261,168)"/>
<path d="M0 0 C1.38294718 0.01329757 2.76582404 0.03715018 4.1484375 0.0703125 C4.85484375 0.07933594 5.56125 0.08835938 6.2890625 0.09765625 C8.03399848 0.12123647 9.77876045 0.15710789 11.5234375 0.1953125 C11.5234375 0.8553125 11.5234375 1.5153125 11.5234375 2.1953125 C12.5134375 2.5253125 13.5034375 2.8553125 14.5234375 3.1953125 C14.8534375 17.0553125 15.1834375 30.9153125 15.5234375 45.1953125 C14.5334375 45.1953125 13.5434375 45.1953125 12.5234375 45.1953125 C12.52867432 44.17058838 12.53391113 43.14586426 12.53930664 42.09008789 C12.55735719 38.30135974 12.5688697 34.51263541 12.57836914 30.72387695 C12.58340924 29.08161786 12.59024128 27.43936327 12.59887695 25.79711914 C12.61095676 23.44155771 12.61666889 21.08605541 12.62109375 18.73046875 C12.62625504 17.99192154 12.63141632 17.25337433 12.63673401 16.4924469 C12.63693 14.72633162 12.58538469 12.96034104 12.5234375 11.1953125 C12.1934375 10.8653125 11.8634375 10.5353125 11.5234375 10.1953125 C11.48279918 8.52914135 11.4807165 6.86143155 11.5234375 5.1953125 C7.0855814 4.08366018 2.75387364 4.08003487 -1.7890625 4.1328125 C-2.89991211 4.13958008 -2.89991211 4.13958008 -4.03320312 4.14648438 C-5.84769149 4.15819075 -7.66213784 4.17612352 -9.4765625 4.1953125 C-8.8578125 3.9065625 -8.2390625 3.6178125 -7.6015625 3.3203125 C-1.48773568 0.08358066 -1.48773568 0.08358066 0 0 Z " fill="#6EF7E0" transform="translate(313.4765625,170.8046875)"/>
<path d="M0 0 C1.9375 2.9375 1.9375 2.9375 3 6 C2.67 6.99 2.34 7.98 2 9 C1.84854901 11.2825699 1.75113021 13.56887706 1.68359375 15.85546875 C1.66281265 16.51710526 1.64203156 17.17874176 1.62062073 17.86042786 C1.55535273 19.96934852 1.49634656 22.07839135 1.4375 24.1875 C1.39429311 25.61915315 1.35067812 27.05079404 1.30664062 28.48242188 C1.19969494 31.98815154 1.09836359 35.49401786 1 39 C0.67 39 0.34 39 0 39 C-0.01458252 37.9805127 -0.02916504 36.96102539 -0.04418945 35.91064453 C-0.10208466 32.13456834 -0.17931665 28.35909404 -0.26245117 24.58349609 C-0.29574214 22.94817866 -0.32376106 21.31274518 -0.34643555 19.67724609 C-0.37990628 17.32859757 -0.43221436 14.98101663 -0.48828125 12.6328125 C-0.49467117 11.89942657 -0.5010611 11.16604065 -0.50764465 10.41043091 C-0.53994543 8.12675244 -0.53994543 8.12675244 -1 5 C-1.99 4.34 -2.98 3.68 -4 3 C-4 2.34 -4 1.68 -4 1 C-7.58451309 1.05189759 -11.16662051 1.14697784 -14.75 1.25 C-16.27367187 1.27126953 -16.27367187 1.27126953 -17.828125 1.29296875 C-18.8078125 1.32519531 -19.7875 1.35742188 -20.796875 1.390625 C-21.69760742 1.41157227 -22.59833984 1.43251953 -23.52636719 1.45410156 C-26.88214129 2.19467706 -28.01856953 3.19617422 -30 6 C-30.64273954 9.47724894 -30.64273954 9.47724894 -30.609375 13.390625 C-30.62591125 14.09523865 -30.64244751 14.79985229 -30.65948486 15.52581787 C-30.70791139 17.76730102 -30.72932187 20.00810613 -30.75 22.25 C-30.77816448 23.77347151 -30.80809259 25.29691152 -30.83984375 26.8203125 C-30.91366593 30.54672756 -30.96327469 34.2730138 -31 38 C-31.33 38 -31.66 38 -32 38 C-32.09915614 33.39190905 -32.17160182 28.78444408 -32.21972656 24.17553711 C-32.23979558 22.60902077 -32.26705751 21.04257891 -32.30175781 19.47631836 C-32.35048754 17.21970206 -32.3730147 14.96407917 -32.390625 12.70703125 C-32.41127014 12.01100296 -32.43191528 11.31497467 -32.45318604 10.59785461 C-32.45481088 7.04667303 -32.07116649 5.11309646 -30.16308594 2.08081055 C-26.07964288 -1.8473142 -21.055486 -1.38365174 -15.6875 -1.6875 C-14.84509766 -1.74744141 -14.00269531 -1.80738281 -13.13476562 -1.86914062 C-8.3277668 -2.14350412 -4.45203923 -2.12923615 0 0 Z " fill="#7FEDFA" transform="translate(329,170)"/>
<path d="M0 0 C0 1.32 0 2.64 0 4 C-4.95 5.485 -4.95 5.485 -10 7 C-7.03 7.33 -4.06 7.66 -1 8 C-1 8.66 -1 9.32 -1 10 C-0.01 10.33 0.98 10.66 2 11 C-4.45250614 13.15083538 -10.68410093 12.1500933 -17 10 C-17 8.35 -17 6.7 -17 5 C-15.43979133 4.34865075 -13.87671421 3.70417036 -12.3125 3.0625 C-11.44238281 2.70285156 -10.57226562 2.34320313 -9.67578125 1.97265625 C-6.46645344 0.80605388 -3.42536068 0 0 0 Z " fill="#66ADE6" transform="translate(246,214)"/>
<path d="M0 0 C2.31 0.66 4.62 1.32 7 2 C7 3.98 7 5.96 7 8 C6.34 8 5.68 8 5 8 C6.62955586 11.17765745 6.62955586 11.17765745 9.2421875 11.546875 C10.11101562 11.61390625 10.97984375 11.6809375 11.875 11.75 C12.73867188 11.82734375 13.60234375 11.9046875 14.4921875 11.984375 C16.90602965 11.99941451 18.73803127 11.83175532 21 11 C21.33 10.34 21.66 9.68 22 9 C21.67 10.65 21.34 12.3 21 14 C16.19680338 15.56839073 12.10636573 16.64990109 7 16 C3.625 14 3.625 14 1 11 C0.31944889 8.29811053 0.18664235 5.79963519 0 3 C-0.66 2.67 -1.32 2.34 -2 2 C-1.34 2 -0.68 2 0 2 C0 1.34 0 0.68 0 0 Z " fill="#64D5D2" transform="translate(276,220)"/>
<path d="M0 0 C3.48670834 1.1094072 6.77484237 2.26337666 10 4 C10 4.66 10 5.32 10 6 C19.01814321 7.14516104 27.9280648 7.09471858 37 7 C31.23979073 11.56844183 26.11684482 11.38970989 19 11 C14.54349354 10.35022052 10.27229724 9.42409908 6 8 C5.67 7.34 5.34 6.68 5 6 C3.35636866 5.27840576 1.68949614 4.60648579 0 4 C0 2.68 0 1.36 0 0 Z " fill="#62CFCC" transform="translate(263,251)"/>
<path d="M0 0 C2.10388569 -0.05402274 4.20816714 -0.09280256 6.3125 -0.125 C8.07013672 -0.15980469 8.07013672 -0.15980469 9.86328125 -0.1953125 C13 0 13 0 16 2 C16.25660094 5.07921132 16.39431504 7.21136993 15 10 C11.44583725 12.48791392 8.44596306 12.04459631 4.25 11.625 C3.07953125 11.51414063 1.9090625 11.40328125 0.703125 11.2890625 C-0.18890625 11.19367188 -1.0809375 11.09828125 -2 11 C-1.6875 9.0625 -1.6875 9.0625 -1 7 C-0.01 6.67 0.98 6.34 2 6 C2.66 6.66 3.32 7.32 4 8 C7.53462587 7.99510849 7.53462587 7.99510849 11 7 C12.51294288 5.06402968 12.51294288 5.06402968 13 3 C12.505 3.165 12.01 3.33 11.5 3.5 C7.90190467 4.21961907 4.67460767 4.1778036 1 4 C0.34 3.34 -0.32 2.68 -1 2 C-0.67 1.34 -0.34 0.68 0 0 Z " fill="#72D5EB" transform="translate(282,221)"/>
<path d="M0 0 C0.75410156 0.00644531 1.50820313 0.01289063 2.28515625 0.01953125 C3.45111328 0.04466797 3.45111328 0.04466797 4.640625 0.0703125 C5.82978516 0.08384766 5.82978516 0.08384766 7.04296875 0.09765625 C8.99231781 0.12114238 10.94151075 0.15701113 12.890625 0.1953125 C12.890625 0.5253125 12.890625 0.8553125 12.890625 1.1953125 C11.74722656 1.25589844 10.60382813 1.31648437 9.42578125 1.37890625 C7.93488195 1.46329678 6.44399725 1.54794552 4.953125 1.6328125 C3.82100586 1.69178711 3.82100586 1.69178711 2.66601562 1.75195312 C-1.02881687 1.63569274 -1.02881687 1.63569274 -4.109375 3.1953125 C-4.23170144 4.66781895 -4.2871206 6.14596961 -4.31469727 7.62329102 C-4.33464249 8.56419083 -4.35458771 9.50509064 -4.37513733 10.47450256 C-4.39184982 11.49740891 -4.40856232 12.52031525 -4.42578125 13.57421875 C-4.44656235 14.61601791 -4.46734344 15.65781708 -4.48875427 16.73118591 C-4.55436557 20.07332497 -4.61318831 23.41554535 -4.671875 26.7578125 C-4.71504922 29.01758668 -4.75866314 31.27735251 -4.80273438 33.53710938 C-4.91005867 39.08975671 -5.01180312 44.64248571 -5.109375 50.1953125 C-4.119375 50.5253125 -3.129375 50.8553125 -2.109375 51.1953125 C-3.429375 51.1953125 -4.749375 51.1953125 -6.109375 51.1953125 C-7.04914725 45.5533346 -7.31758224 40.03809808 -7.42578125 34.32421875 C-7.44656235 33.4018895 -7.46734344 32.47956024 -7.48875427 31.52928162 C-7.55373138 28.60552867 -7.61289184 25.68169189 -7.671875 22.7578125 C-7.71510961 20.76626764 -7.75872542 18.77473102 -7.80273438 16.78320312 C-7.90935907 11.92065713 -8.01077003 7.05802746 -8.109375 2.1953125 C-5.26701117 0.58463966 -3.26173957 -0.0494203 0 0 Z " fill="#68C2DD" transform="translate(259.109375,173.8046875)"/>
<path d="M0 0 C0.99 0.33 1.98 0.66 3 1 C2.74863281 1.82757813 2.74863281 1.82757813 2.4921875 2.671875 C1.93704078 5.29780709 2.01018692 7.57102825 2.125 10.25 C2.16168258 19.48178303 -1.59132791 27.27433982 -8 34 C-9.32 34 -10.64 34 -12 34 C-11 31 -11 31 -9.1015625 29.15625 C-2.57753346 22.46245069 -1.06096337 11.93109462 0 3 C-0.66 3 -1.32 3 -2 3 C-2 2.34 -2 1.68 -2 1 C-1.34 0.67 -0.68 0.34 0 0 Z " fill="#6DF7E7" transform="translate(326,217)"/>
<path d="M0 0 C1.00289063 0.28746094 2.00578125 0.57492188 3.0390625 0.87109375 C3.80992187 1.09925781 4.58078125 1.32742187 5.375 1.5625 C5.705 3.2125 6.035 4.8625 6.375 6.5625 C1.93855264 9.81589473 -3.16635143 11.23868186 -8.625 11.5625 C-9.615 10.9025 -10.605 10.2425 -11.625 9.5625 C-10.965 9.5625 -10.305 9.5625 -9.625 9.5625 C-9.625 8.9025 -9.625 8.2425 -9.625 7.5625 C-6.655 6.5725 -3.685 5.5825 -0.625 4.5625 C-0.625 3.9025 -0.625 3.2425 -0.625 2.5625 C-2.935 2.8925 -5.245 3.2225 -7.625 3.5625 C-7.625 2.2425 -7.625 0.9225 -7.625 -0.4375 C-4.72405209 -1.88797396 -3.06527404 -0.89106803 0 0 Z " fill="#84DBF4" transform="translate(341.625,207.4375)"/>
<path d="M0 0 C1.28003906 -0.04898438 2.56007813 -0.09796875 3.87890625 -0.1484375 C8.46223738 0.52572976 9.62748841 1.73482526 12.4375 5.375 C12.87607267 8.36691443 13.02651776 10.76514885 12.92578125 13.73828125 C12.91870651 14.53026413 12.91163177 15.32224701 12.90434265 16.13822937 C12.87646244 18.65563389 12.813742 21.17077356 12.75 23.6875 C12.72490861 25.3990563 12.70209691 27.11064765 12.68164062 28.82226562 C12.62665747 33.00737654 12.54043418 37.19080496 12.4375 41.375 C12.1075 41.375 11.7775 41.375 11.4375 41.375 C11.1075 30.485 10.7775 19.595 10.4375 8.375 C8.4575 7.385 6.4775 6.395 4.4375 5.375 C4.1075 4.715 3.7775 4.055 3.4375 3.375 C-2.1725 3.045 -7.7825 2.715 -13.5625 2.375 C-13.5625 2.045 -13.5625 1.715 -13.5625 1.375 C-9.02354077 0.51912206 -4.61744028 0.12114374 0 0 Z " fill="#6FCDE8" transform="translate(268.5625,167.625)"/>
<path d="M0 0 C2.0625 0.4375 2.0625 0.4375 4 1 C3.01 1 2.02 1 1 1 C1 15.85 1 30.7 1 46 C1.33 45.34 1.66 44.68 2 44 C2.66 44 3.32 44 4 44 C4 44.66 4 45.32 4 46 C5.98 46.33 7.96 46.66 10 47 C9.34 48.32 8.68 49.64 8 51 C6.68 51 5.36 51 4 51 C3.67 51.66 3.34 52.32 3 53 C3.66 53.33 4.32 53.66 5 54 C3.68 53.67 2.36 53.34 1 53 C1.33 51.35 1.66 49.7 2 48 C1.01 48 0.02 48 -1 48 C-1.02526945 41.3247966 -1.04283268 34.64960543 -1.05493164 27.97436523 C-1.05997325 25.70157409 -1.06680637 23.4287862 -1.07543945 21.15600586 C-1.08751261 17.89696449 -1.09322987 14.63796583 -1.09765625 11.37890625 C-1.10281754 10.35599991 -1.10797882 9.33309357 -1.11329651 8.27919006 C-1.11337204 7.33829025 -1.11344757 6.39739044 -1.11352539 5.42797852 C-1.115746 4.59524918 -1.11796661 3.76251984 -1.12025452 2.90455627 C-1 1 -1 1 0 0 Z " fill="#62C2CA" transform="translate(255,176)"/>
<path d="M0 0 C6.93 0 13.86 0 21 0 C21.33 0.66 21.66 1.32 22 2 C24.01669827 3.13350534 24.01669827 3.13350534 26 4 C25.67 6.64 25.34 9.28 25 12 C22.64046906 9.64046906 22.50858587 8.22104383 22 5 C19.27498092 4.09166031 17.37766029 3.81640015 14.55078125 3.68359375 C13.70322266 3.64169922 12.85566406 3.59980469 11.98242188 3.55664062 C11.10134766 3.51732422 10.22027344 3.47800781 9.3125 3.4375 C8.41982422 3.39431641 7.52714844 3.35113281 6.60742188 3.30664062 C4.40509892 3.20064647 2.20266527 3.09857949 0 3 C0 2.01 0 1.02 0 0 Z " fill="#60CEC7" transform="translate(253,171)"/>
<path d="M0 0 C0.66 0 1.32 0 2 0 C2 0.99 2 1.98 2 3 C2.66 3 3.32 3 4 3 C4.23074219 3.65226563 4.46148437 4.30453125 4.69921875 4.9765625 C8.49964418 15.1611018 13.5766921 19.84005276 23 25 C21 26 21 26 18.94140625 25.546875 C18.15636719 25.28390625 17.37132812 25.0209375 16.5625 24.75 C15.78003906 24.49734375 14.99757813 24.2446875 14.19140625 23.984375 C11.87620501 22.94439156 10.67401503 21.87840058 9 20 C8.319375 19.38125 7.63875 18.7625 6.9375 18.125 C4.76357763 15.74069805 4.01850717 14.0555215 3 11 C2.74089844 10.2575 2.48179687 9.515 2.21484375 8.75 C0 2.32180233 0 2.32180233 0 0 Z " fill="#68C5E2" transform="translate(253,229)"/>
<path d="M0 0 C0.87567627 0.05329468 0.87567627 0.05329468 1.76904297 0.10766602 C4.47061643 0.26741355 7.17273101 0.41500419 9.875 0.5625 C10.7928125 0.61857422 11.710625 0.67464844 12.65625 0.73242188 C18.22106921 1.02633838 23.48194973 0.8808109 29.00830078 0.13647461 C31 0 31 0 33 1 C33 1.66 33 2.32 33 3 C22.08626963 5.32383613 12.87598285 5.59172357 2 3 C2 2.34 2 1.68 2 1 C1.34 0.67 0.68 0.34 0 0 Z " fill="#6DD8EA" transform="translate(271,254)"/>
<path d="M0 0 C2.71663793 2.71663793 2.30753121 4.30194653 2.4140625 8.1015625 C2.45273437 9.31328125 2.49140625 10.525 2.53125 11.7734375 C2.57765625 13.67996094 2.57765625 13.67996094 2.625 15.625 C2.66367187 16.90375 2.70234375 18.1825 2.7421875 19.5 C2.83671049 22.66652017 2.92226357 25.8330304 3 29 C3.99 29.33 4.98 29.66 6 30 C5.34 30 4.68 30 4 30 C4.66 30.99 5.32 31.98 6 33 C8.58380177 33.25030977 8.58380177 33.25030977 11 33 C11 33.66 11 34.32 11 35 C3.55463316 35.36616558 3.55463316 35.36616558 1.390625 33.9375 C-0.69130604 31.03683203 -0.37062199 28.13975883 -0.29296875 24.70703125 C-0.28872391 24.00100266 -0.28447906 23.29497406 -0.28010559 22.56755066 C-0.26333034 20.31547697 -0.22568243 18.06430258 -0.1875 15.8125 C-0.17245157 14.28451815 -0.15876344 12.75652224 -0.14648438 11.22851562 C-0.11343089 7.48533128 -0.06165832 3.74281804 0 0 Z " fill="#70DFF3" transform="translate(330,177)"/>
<path d="M0 0 C0.66 0 1.32 0 2 0 C4.44703555 4.8940711 3.54023378 11.71866991 2.31640625 16.88671875 C-0.14112867 24.03498423 -3.6007578 31.6007578 -9 37 C-9.99 37 -10.98 37 -12 37 C-9.97163087 32.48899158 -6.89126217 28.83598306 -3.875 24.94921875 C-0.2053445 19.17715646 0.24405866 13.78931427 0.125 7.0625 C0.11146484 6.03672852 0.11146484 6.03672852 0.09765625 4.99023438 C0.07438958 3.32666713 0.03853167 1.66328369 0 0 Z " fill="#7DF2FA" transform="translate(327,218)"/>
<path d="M0 0 C3.375 -0.125 3.375 -0.125 7 0 C7.66 0.66 8.32 1.32 9 2 C11.19704511 2.67651207 11.19704511 2.67651207 13.625 3.125 C14.44226563 3.29257813 15.25953125 3.46015625 16.1015625 3.6328125 C16.72804688 3.75398437 17.35453125 3.87515625 18 4 C18 5.65 18 7.3 18 9 C17.67 8.01 17.34 7.02 17 6 C14.03 6 11.06 6 8 6 C7.67 7.32 7.34 8.64 7 10 C5.68 10.33 4.36 10.66 3 11 C3.99 9.02 4.98 7.04 6 5 C5.195625 4.731875 4.39125 4.46375 3.5625 4.1875 C2.716875 3.795625 1.87125 3.40375 1 3 C0.67 2.01 0.34 1.02 0 0 Z " fill="#75D5F3" transform="translate(258,219)"/>
<path d="M0 0 C3.75376152 1.25125384 4.24073289 2.5652404 6 6 C6 6.66 6 7.32 6 8 C6.53625 8.268125 7.0725 8.53625 7.625 8.8125 C10.41666667 10.20833333 13.20833333 11.60416667 16 13 C16 13.99 16 14.98 16 16 C17.65 16.33 19.3 16.66 21 17 C18.72785973 17.77252769 17.40306062 18.11830727 15.0703125 17.43359375 C7.93426596 13.77959402 3.09550952 9.56680104 0 2 C0 1.34 0 0.68 0 0 Z " fill="#66C3E0" transform="translate(253,244)"/>
<path d="M0 0 C2.97 0 5.94 0 9 0 C9 0.99 9 1.98 9 3 C9.66 3 10.32 3 11 3 C11.268125 3.598125 11.53625 4.19625 11.8125 4.8125 C12.99849039 6.99721913 14.22056482 8.29470795 16 10 C16.99 11.485 16.99 11.485 18 13 C14.59497074 12.71624756 13.23742254 12.23082747 10.75 9.8125 C8.86093921 6.77650944 8.32862916 4.53276352 8 1 C5.69 1 3.38 1 1 1 C0.67 2.32 0.34 3.64 0 5 C-2.31 5.33 -4.62 5.66 -7 6 C-7.33 4.35 -7.66 2.7 -8 1 C-5.525 1.495 -5.525 1.495 -3 2 C-3 2.66 -3 3.32 -3 4 C-2.34 4 -1.68 4 -1 4 C-0.67 2.68 -0.34 1.36 0 0 Z " fill="#6DCEEC" transform="translate(266,225)"/>
<path d="M0 0 C1.27133789 0.00966797 1.27133789 0.00966797 2.56835938 0.01953125 C3.8899707 0.04466797 3.8899707 0.04466797 5.23828125 0.0703125 C6.57729492 0.08384766 6.57729492 0.08384766 7.94335938 0.09765625 C10.14610439 0.12121502 12.34830713 0.15410921 14.55078125 0.1953125 C10.39841286 3.48857019 7.3862533 4.34703928 2.11328125 4.3828125 C0.69208984 4.40408203 0.69208984 4.40408203 -0.7578125 4.42578125 C-3.49423519 4.19145768 -5.11349998 3.59232633 -7.44921875 2.1953125 C-4.2960709 0.09321393 -3.58818794 -0.0481636 0 0 Z " fill="#67D9CA" transform="translate(285.44921875,257.8046875)"/>
<path d="M0 0 C0 1.32 0 2.64 0 4 C-1.7699868 4.19532961 -3.54104279 4.38098882 -5.3125 4.5625 C-6.29863281 4.66691406 -7.28476562 4.77132812 -8.30078125 4.87890625 C-11 5 -11 5 -14 4 C-14 3.01 -14 2.02 -14 1 C-4.58997722 -0.14806378 -4.58997722 -0.14806378 0 0 Z " fill="#7BCDF0" transform="translate(296,208)"/>
<path d="M0 0 C2.475 0.495 2.475 0.495 5 1 C6.27159943 4.88959827 6.12651187 8.78563579 6.09765625 12.828125 C6.0962413 13.57713074 6.09482635 14.32613647 6.09336853 15.09783936 C6.08778659 17.48193412 6.07523745 19.86593378 6.0625 22.25 C6.05748266 23.86979031 6.05292016 25.48958209 6.04882812 27.109375 C6.03782308 31.07295312 6.02057091 35.03646045 6 39 C5.67 39 5.34 39 5 39 C4.9906543 38.03175293 4.98130859 37.06350586 4.97167969 36.06591797 C4.93163217 32.45364353 4.86583446 28.84220765 4.79248047 25.23046875 C4.76435587 23.6710085 4.74309911 22.11140796 4.72900391 20.55175781 C4.70745458 18.30200827 4.66074943 16.05393026 4.609375 13.8046875 C4.60814636 13.1138205 4.60691772 12.42295349 4.60565186 11.71115112 C4.45110043 6.53636219 3.08787338 3.9539842 0 0 Z " fill="#79D8F2" transform="translate(275,170)"/>
<path d="M0 0 C-0.33 0.99 -0.66 1.98 -1 3 C-3.5625 4.1875 -3.5625 4.1875 -6 5 C-6 5.33 -6 5.66 -6 6 C-9.3 6.33 -12.6 6.66 -16 7 C-16.66 6.01 -17.32 5.02 -18 4 C-15.36 4 -12.72 4 -10 4 C-10 3.34 -10 2.68 -10 2 C-3.375 -1.125 -3.375 -1.125 0 0 Z " fill="#66E9DC" transform="translate(314,253)"/>
<path d="M0 0 C-2.31399023 2.31399023 -2.98604724 2.32256804 -6.1328125 2.6328125 C-6.93847656 2.71660156 -7.74414062 2.80039063 -8.57421875 2.88671875 C-9.41597656 2.96535156 -10.25773437 3.04398438 -11.125 3.125 C-11.97449219 3.21136719 -12.82398438 3.29773438 -13.69921875 3.38671875 C-15.79869727 3.59902557 -17.89926242 3.80053603 -20 4 C-19.67 3.01 -19.34 2.02 -19 1 C-16.96044851 0.63384906 -14.91821752 0.28260721 -12.875 -0.0625 C-11.73804688 -0.25972656 -10.60109375 -0.45695313 -9.4296875 -0.66015625 C-6.0246108 -0.99756134 -3.32821869 -0.72330588 0 0 Z " fill="#81D7F4" transform="translate(324,218)"/>
<path d="M0 0 C0.66 0 1.32 0 2 0 C2 0.66 2 1.32 2 2 C4.97 2.495 4.97 2.495 8 3 C7.34 4.32 6.68 5.64 6 7 C4.68 7 3.36 7 2 7 C1.67 7.66 1.34 8.32 1 9 C1.66 9.33 2.32 9.66 3 10 C1.68 9.67 0.36 9.34 -1 9 C-0.67 6.03 -0.34 3.06 0 0 Z " fill="#66D2D3" transform="translate(257,220)"/>
<path d="M0 0 C0.625 1.875 0.625 1.875 1 4 C-1.43486607 6.43486607 -2.57425106 6.44209813 -5.9375 6.8125 C-6.81277344 6.92207031 -7.68804687 7.03164062 -8.58984375 7.14453125 C-11 7 -11 7 -12.81640625 5.51171875 C-13.40228516 4.76341797 -13.40228516 4.76341797 -14 4 C-12.98679687 3.90912109 -12.98679687 3.90912109 -11.953125 3.81640625 C-11.06109375 3.73261719 -10.1690625 3.64882812 -9.25 3.5625 C-8.36828125 3.48128906 -7.4865625 3.40007812 -6.578125 3.31640625 C-4.30649548 3.03761535 -2.20148177 2.61209423 0 2 C0 1.34 0 0.68 0 0 Z " fill="#61E2CE" transform="translate(297,229)"/>
<path d="M0 0 C0 0.99 0 1.98 0 3 C-6.93 4.485 -6.93 4.485 -14 6 C-13.67 5.01 -13.34 4.02 -13 3 C-10.56640625 2.05078125 -10.56640625 2.05078125 -7.5625 1.3125 C-6.57378906 1.06113281 -5.58507812 0.80976563 -4.56640625 0.55078125 C-2 0 -2 0 0 0 Z " fill="#73B6F0" transform="translate(246,214)"/>
<path d="M0 0 C2.08954032 4.17908064 2.16552619 4.80410573 1 9 C1.66 9 2.32 9 3 9 C2.938125 8.21625 2.87625 7.4325 2.8125 6.625 C2.874375 5.75875 2.93625 4.8925 3 4 C3.99 3.34 4.98 2.68 6 2 C6 4.97 6 7.94 6 11 C4.02 11 2.04 11 0 11 C0 7.37 0 3.74 0 0 Z " fill="#75E9EF" transform="translate(297,209)"/>
<path d="M0 0 C1.26070809 2.9798555 0.99119908 4.02316031 -0.1875 7.125 C-1.99400788 9.99049526 -2.86809018 10.9200311 -6 12 C-6.33 11.34 -6.66 10.68 -7 10 C-6.21625 9.0925 -5.4325 8.185 -4.625 7.25 C-2.69947504 4.94809764 -1.17794259 2.78422793 0 0 Z " fill="#68F0E2" transform="translate(321,240)"/>
<path d="M0 0 C0.66 0 1.32 0 2 0 C2.50432107 5.2953712 1.28757779 7.86704506 -2 12 C-2.99 12.66 -3.98 13.32 -5 14 C-5.99 13.67 -6.98 13.34 -8 13 C-4.25 10 -4.25 10 -2 10 C-0.58382552 5.06041043 -0.58382552 5.06041043 0 0 Z " fill="#7AE2F8" transform="translate(301,223)"/>
<path d="M0 0 C0 0.66 0 1.32 0 2 C0.99 2.33 1.98 2.66 3 3 C1.25034642 3.05429959 -0.49979787 3.09292823 -2.25 3.125 C-3.22453125 3.14820313 -4.1990625 3.17140625 -5.203125 3.1953125 C-8.0196498 2.99862781 -9.60949036 2.44568916 -12 1 C-8.0186217 -0.3271261 -4.14954773 -0.06915913 0 0 Z " fill="#71AFF6" transform="translate(245,222)"/>
<path d="M0 0 C0 1.98 0 3.96 0 6 C-0.66 5.67 -1.32 5.34 -2 5 C-2 4.01 -2 3.02 -2 2 C-2.74765625 2.144375 -3.4953125 2.28875 -4.265625 2.4375 C-5.74289062 2.7159375 -5.74289062 2.7159375 -7.25 3 C-8.71179688 3.2784375 -8.71179688 3.2784375 -10.203125 3.5625 C-13 4 -13 4 -17 4 C-17 3.34 -17 2.68 -17 2 C-14.54187409 1.66507287 -12.08352273 1.3319903 -9.625 1 C-8.92632812 0.90460938 -8.22765625 0.80921875 -7.5078125 0.7109375 C-2.2265625 0 -2.2265625 0 0 0 Z " fill="#6ED2E7" transform="translate(324,219)"/>
<path d="M0 0 C-0.99 1.485 -0.99 1.485 -2 3 C-3.32 3 -4.64 3 -6 3 C-6.33 3.66 -6.66 4.32 -7 5 C-7.99 4.67 -8.98 4.34 -10 4 C-9.67 3.01 -9.34 2.02 -9 1 C-6.04335481 -0.4783226 -3.25770263 -0.06032783 0 0 Z " fill="#6AE8D8" transform="translate(310,171)"/>
<path d="M0 0 C-3.14591933 2.80045623 -5.067064 3.35261589 -9.25 3.1875 C-10.14203125 3.16042969 -11.0340625 3.13335937 -11.953125 3.10546875 C-12.62859375 3.07066406 -13.3040625 3.03585937 -14 3 C-9.12941325 0.48073099 -5.50946709 -0.10395221 0 0 Z " fill="#6BE3CE" transform="translate(300,258)"/>
<path d="M0 0 C0.66 0 1.32 0 2 0 C2.33 3.3 2.66 6.6 3 10 C2.01 9.67 1.02 9.34 0 9 C0 6.03 0 3.06 0 0 Z " fill="#5CC2B3" transform="translate(250,226)"/>
<path d="M0 0 C0 1.65 0 3.3 0 5 C-0.33 4.01 -0.66 3.02 -1 2 C-1.94875 2.04125 -2.8975 2.0825 -3.875 2.125 C-7 2 -7 2 -9 0 C-5.93109813 -1.53445094 -3.29905734 -0.54984289 0 0 Z " fill="#77C8F6" transform="translate(276,223)"/>
<path d="M0 0 C2.31 0.66 4.62 1.32 7 2 C5.3125 3.625 5.3125 3.625 3 5 C0.25 4.1875 0.25 4.1875 -2 3 C-1.34 2.67 -0.68 2.34 0 2 C0 1.34 0 0.68 0 0 Z " fill="#5ED4CE" transform="translate(276,220)"/>
<path d="M0 0 C0.144375 0.61875 0.28875 1.2375 0.4375 1.875 C0.93152225 4.03258322 0.93152225 4.03258322 2 6 C1.66015625 7.9453125 1.66015625 7.9453125 1.0625 10.125 C0.86785156 10.84945312 0.67320312 11.57390625 0.47265625 12.3203125 C0.31667969 12.87460938 0.16070312 13.42890625 0 14 C-0.33 14 -0.66 14 -1 14 C-1.22226864 12.23086176 -1.42733873 10.45955629 -1.625 8.6875 C-1.74101562 7.70136719 -1.85703125 6.71523437 -1.9765625 5.69921875 C-2 3 -2 3 0 0 Z " fill="#6DE5F1" transform="translate(331,213)"/>
<path d="M0 0 C3.36591866 1.44253657 5.51047079 3.33264727 8 6 C7.01 6.33 6.02 6.66 5 7 C2.65941363 4.87219421 1.29299694 2.88437779 0 0 Z " fill="#6AC1EF" transform="translate(259,252)"/>
<path d="M0 0 C0.33 0 0.66 0 1 0 C1 2.97 1 5.94 1 9 C1.66 9.33 2.32 9.66 3 10 C2.67 10.99 2.34 11.98 2 13 C1.01 12.34 0.02 11.68 -1 11 C-0.67 7.37 -0.34 3.74 0 0 Z " fill="#70E2E6" transform="translate(296,211)"/>
<path d="M0 0 C1.32 1.32 2.64 2.64 4 4 C2.68 5.65 1.36 7.3 0 9 C-1.125 2.25 -1.125 2.25 0 0 Z " fill="#65E6DB" transform="translate(298,224)"/>
<path d="M0 0 C1.32 0.66 2.64 1.32 4 2 C3.01 2 2.02 2 1 2 C0.67 3.32 0.34 4.64 0 6 C-1.32 6.33 -2.64 6.66 -4 7 C-2.68 4.69 -1.36 2.38 0 0 Z " fill="#7FE1F9" transform="translate(265,223)"/>
<path d="M0 0 C0.33 0.66 0.66 1.32 1 2 C0.01 3.32 -0.98 4.64 -2 6 C-4.31 5.67 -6.62 5.34 -9 5 C-9 4.67 -9 4.34 -9 4 C-7.88625 3.71125 -6.7725 3.4225 -5.625 3.125 C-1.99708908 2.30758671 -1.99708908 2.30758671 0 0 Z " fill="#68D0DF" transform="translate(295,226)"/>
<path d="M0 0 C1.32 0.33 2.64 0.66 4 1 C3.34 2.65 2.68 4.3 2 6 C1.34 6 0.68 6 0 6 C0 4.02 0 2.04 0 0 Z " fill="#62D7CD" transform="translate(277,210)"/>
</svg>
